<svg version="1.1" id="Layer_1"
    xmlns="http://www.w3.org/2000/svg"
    xmlns:xlink="http://www.w3.org/1999/xlink" x="0px" y="0px" viewBox="0 0 512 512" style="enable-background: new 0 0 512 512" xml:space="preserve">
    <style type="text/css">
                .st0 {
                  fill: #00914d;
                }
                .st1 {
                  fill: #059447;
                }
                .st2 {
                  fill: #007b48;
                }
                .st3 {
                  fill: #fdcc00;
                }
                .st4 {
                  fill: #5aba47;
                }
                .st5 {
                  fill: #63d3fd;
                }
    </style>
    <g transform="translate(1 1)">
        <path class="st0" d="M33.1,502.5l30.7-123.7c-19.6-38.4-30.7-81.1-30.7-125.4c0-134.8,99.8-245.8,221-245.8
      c122,0,222.7,110.9,222.7,245.8S376.2,502.5,254.1,502.5c-37.5,0-75.1-13.7-107.5-34.1L33.1,502.5z" />
        <path class="st1" d="M34.8,494.8l29-116.9c-19.6-37.5-30.7-80.2-30.7-124.6c0-134.8,99.8-245.8,221-245.8l0,0
      C118.5,7.5,7.5,118.5,7.5,253.3c0,44.4,11.9,87,34.1,125.4L7.5,502.5L34.8,494.8z" />
        <path class="st2" d="M255,7.5c121.2,0.9,221.9,110.9,221.9,245.8c0,135.7-100.7,248.3-221.9,249.2
      c135.7-0.9,247.5-113.5,247.5-248.3C502.5,118.5,390.7,8.4,255,7.5" />
        <path class="st3" d="M146.6,468.3l-7.7,2.6c35.8,18.8,75.1,31.6,116.1,31.6l0,0C216.6,502.5,179.1,488.8,146.6,468.3" />
        <path class="st4" d="M140.7,424l7.7,4.3c31.6,19.6,68.3,31.6,81.1,31.6c111.8,0,204.8-93,204.8-206.5S350.6,50.2,237.9,50.2
      c-89.6,0-187.7,90.5-187.7,203.1c0,39.3,11.1,77.7,31.6,110.1l5.1,7.7l-19.6,71.7L140.7,424z" />
        <path class="st2" d="M254.1,50.2c-2.6,0-5.1,0-8.5,0c109.2,4.3,188.6,93.9,188.6,203.1c0,108.4-85.3,198.8-192,205.7
      c4.3,0,8.5,0.9,11.9,0.9c112.6,0,205.7-93,205.7-206.5S366.8,50.2,254.1,50.2" />
        <path class="st5" d="M188.4,138.9l-16.2-0.9c-5.1,0-10.2,1.7-13.7,5.1c-7.7,6.8-20.5,19.6-23.9,36.7c-6,25.6,3.4,56.3,25.6,87
      s64.9,80.2,139.9,101.5c23.9,6.8,42.7,2.6,58-6.8c11.9-7.7,19.6-19.6,22.2-32.4l2.6-11.9c0.9-3.4-0.9-7.7-4.3-9.4L325,283.2
      c-3.4-1.7-7.7-0.9-10.2,2.6L293.4,313c-1.7,1.7-4.3,2.6-6.8,1.7c-14.5-5.1-63.1-25.6-89.6-76.8c-0.9-2.6-0.9-5.1,0.9-6.8l20.5-23
      c1.7-2.6,2.6-6,1.7-8.5l-24.7-55.5C194.4,141.5,191.9,138.9,188.4,138.9" />
        <path d="M7.5,511c-2.6,0-4.3-0.9-6-2.6c-2.6-2.6-2.6-5.1-2.6-8.5l34.1-120.3C10.9,340.3-1,297.7-1,253.3C-1,197,16.9,143.2,51.9,98
      c2.6-3.4,8.5-4.3,11.9-1.7c3.4,2.6,4.3,8.5,1.7,11.9c-32.4,42.7-49.5,93-49.5,145.1c0,41.8,11.9,83.6,33.3,120.3
      c0.9,2.6,1.7,5.1,0.9,6.8L19.5,490.5l112.6-30.7c2.6-0.9,4.3,0,6,0.9c38.4,21.3,78.5,33.3,116.1,33.3
      c129.7,0,239.8-110.1,239.8-240.6S386.4,16.1,254.1,16.1c-50.3,0-98.1,15.4-139.1,45.2c-3.4,2.6-9.4,1.7-11.9-1.7
      c-2.6-4.3-1.7-9.4,1.7-11.9C148.3,16.1,200.4-1,254.1-1C395.8-1,511,113.3,511,253.3S393.2,511,254.1,511
      c-39.3,0-81.1-11.9-121.2-33.3L10.1,511C9.2,511,8.4,511,7.5,511z" />
        <path d="M88.6,78.4c0-5.1-3.4-8.5-8.5-8.5s-8.5,3.4-8.5,8.5c0,5.1,3.4,8.5,8.5,8.5S88.6,82.6,88.6,78.4" />
        <path d="M254.1,468.3c-37.5,0-75.9-11.1-110.9-32.4l-4.3-2.6l-83.6,21.3l23-81.1l-3.4-4.3c-21.3-35-33.3-74.2-33.3-116.1
      c0-116.9,95.6-211.6,212.5-211.6c117.8,0,214.2,94.7,214.2,211.6C468.3,371.9,371.9,468.3,254.1,468.3z M141.5,414.6l10.2,6.8
      c32.4,19.6,67.4,30.7,101.5,30.7c109.2-0.9,198-89.6,198-198.8c0-106.7-88.7-194.6-197.1-194.6c-107.5,0-195.4,87.9-195.4,194.6
      c0,37.5,10.2,74.2,30.7,105.8l6.8,11.1l-17.1,59.7L141.5,414.6z" />
        <path id="SVGCleanerId_0" d="M322.4,380.4c-7.7,0-16.2-0.9-24.7-3.4c-85.3-23.9-129.7-84.5-144.2-105
      c-23.9-32.4-33.3-65.7-27.3-93.9c4.3-19.6,18.8-34.1,26.5-41c5.1-5.1,12.8-6.8,19.6-6.8l16.2,0.9c6.8,0,11.9,4.3,14.5,10.2l23,54.6
      c2.6,6,1.7,12.8-2.6,17.9l-18.8,22.2c24.7,46.1,67.4,64.9,82.8,70.8l20.5-26.5c5.1-6,12.8-8.5,20.5-5.1l53.8,24.7
      c6.8,3.4,11.1,11.1,9.4,18.8l-2.6,11.9c-3.4,15.4-12.8,29.9-26.5,38.4C350.6,376.2,336.9,380.4,322.4,380.4z M171.4,146.6
      c-2.6,0-5.1,0.9-6.8,2.6c-6.8,6-17.9,17.1-21.3,32.4c-5.1,23,3.4,52.1,23.9,80.2c13.7,18.8,55.5,75.9,134.8,98.1
      c18.8,5.1,35.8,3.4,50.3-6c9.4-6,16.2-16.2,18.8-27.3l3.4-11.9L320.7,290l-20.5,27.3c-4.3,5.1-10.2,6.8-16.2,5.1
      c-15.4-5.1-66.6-26.5-94.7-81.1c-2.6-5.1-1.7-11.9,1.7-16.2l20.5-23l-23-53.8L171.4,146.6L171.4,146.6z" />
        <g>
            <path id="SVGCleanerId_0_1_" d="M322.4,380.4c-7.7,0-16.2-0.9-24.7-3.4c-85.3-23.9-129.7-84.5-144.2-105
          c-23.9-32.4-33.3-65.7-27.3-93.9c4.3-19.6,18.8-34.1,26.5-41c5.1-5.1,12.8-6.8,19.6-6.8l16.2,0.9c6.8,0,11.9,4.3,14.5,10.2
          l23,54.6c2.6,6,1.7,12.8-2.6,17.9l-18.8,22.2c24.7,46.1,67.4,64.9,82.8,70.8l20.5-26.5c5.1-6,12.8-8.5,20.5-5.1l53.8,24.7
          c6.8,3.4,11.1,11.1,9.4,18.8l-2.6,11.9c-3.4,15.4-12.8,29.9-26.5,38.4C350.6,376.2,336.9,380.4,322.4,380.4z M171.4,146.6
          c-2.6,0-5.1,0.9-6.8,2.6c-6.8,6-17.9,17.1-21.3,32.4c-5.1,23,3.4,52.1,23.9,80.2c13.7,18.8,55.5,75.9,134.8,98.1
          c18.8,5.1,35.8,3.4,50.3-6c9.4-6,16.2-16.2,18.8-27.3l3.4-11.9L320.7,290l-20.5,27.3c-4.3,5.1-10.2,6.8-16.2,5.1
          c-15.4-5.1-66.6-26.5-94.7-81.1c-2.6-5.1-1.7-11.9,1.7-16.2l20.5-23l-23-53.8L171.4,146.6L171.4,146.6z" />
        </g>
    </g>
</svg>