<?xml version="1.0" encoding="utf-8"?>
<!-- Generator: Adobe Illustrator 24.1.1, SVG Export Plug-In . SVG Version: 6.00 Build 0)  -->
<svg version="1.1" xmlns="http://www.w3.org/2000/svg" xmlns:xlink="http://www.w3.org/1999/xlink" x="0px" y="0px"
	 viewBox="0 0 512 512" style="enable-background:new 0 0 512 512;" xml:space="preserve">
<style type="text/css">
	.st0{fill:#EFF3F3;}
	.st1{fill:#69C79B;}
	.st2{fill:#323C5A;}
	.st3{fill:#A2BFDC;}
	.st4{opacity:0.46;fill:#A3B6BF;}
	.st5{fill:#70C27A;}
</style>
<g id="Layer_1">
	<path class="st0" d="M256,10C120.2,10,10,120.2,10,256c0,54.4,17.7,104.8,47.6,145.5l-22.8,98.6l103.8-27.9
		c34.9,19,74.8,29.7,117.3,29.7c135.8,0,246-110.1,246-246S391.8,10,256,10z"/>
	<path class="st1" d="M256,461.8c-34.3,0-68.3-8.6-98.2-24.9l-15.3-8.3l-55.7,18.5l14.6-53.8L90,377.7C64,342.3,50.2,300.2,50.2,256
		c0-113.5,92.3-205.8,205.8-205.8S461.8,142.5,461.8,256C461.8,369.5,369.5,461.8,256,461.8z"/>
	<path d="M207,466c-4.2,0-8-2.7-9.4-6.7c-1.4-3.9-0.2-8.4,3-11c3.3-2.8,8.1-3.1,11.8-0.9c3.5,2.2,5.4,6.4,4.5,10.5
		C215.9,462.5,211.8,466,207,466z"/>
	<path d="M256.9,471.9c-0.2,0-1.5,0-2.7,0c-0.9,0-1.8,0-2,0c-5.5,0-10-4.5-10-10s4.5-10,10-10c0.1,0,1.1,0,2.1,0c1.1,0,2.3,0,2.5,0
		c107.5-0.4,194.9-88.3,194.9-195.8C451.8,148,364,60.2,256,60.2S60.2,148,60.2,256c0,42,13.1,82.1,37.9,115.8l11.5,15.6
		c1.8,2.5,2.4,5.6,1.6,8.6l-9.7,35.7l37.9-12.6c2.6-0.9,5.5-0.6,8,0.7l19.1,10.4c4.9,2.6,6.7,8.7,4,13.6c-2.6,4.9-8.7,6.7-13.6,4
		l-15.3-8.3L90,456.7c-3.5,1.2-7.4,0.3-10.1-2.2c-2.7-2.5-3.8-6.4-2.8-9.9l13.4-49.1l-8.6-11.7C54.6,346.5,40.1,302.3,40.1,256
		C40.1,137,137,40.1,256,40.1S471.9,137,471.9,256C471.9,374.5,375.4,471.4,256.9,471.9C256.9,471.9,256.9,471.9,256.9,471.9z"/>
	<path d="M256,512c-41.3,0-82.2-10-118.6-29.1l-100,26.8c-3.4,0.9-7,0-9.6-2.5c-2.5-2.4-3.6-6-2.8-9.5l21.8-94.2
		C16.2,360.3,0,309.4,0,256c0-68.4,26.6-132.7,75-181S187.6,0,256,0s132.7,26.6,181,75s75,112.6,75,181s-26.6,132.7-75,181
		S324.4,512,256,512z M138.7,462.2c1.7,0,3.3,0.4,4.8,1.2c34.3,18.7,73.2,28.5,112.5,28.5c130.1,0,235.9-105.8,235.9-235.9
		S386.1,20.1,256,20.1S20.1,125.9,20.1,256c0,50.6,15.8,98.9,45.7,139.6c1.7,2.4,2.4,5.4,1.7,8.2l-19,82.3l87.6-23.5
		C136.9,462.3,137.8,462.2,138.7,462.2z"/>
</g>
<g id="Layer_2">
	<g>
		<g>
			<ellipse class="st2" cx="256" cy="259.1" rx="182.4" ry="81.9"/>
			<g>
				<path class="st3" d="M94.9,297.6c3.2,2.7,6.8,5.4,10.7,7.9C96.1,278.3,92,248.1,93,222.3c-3,2.7-5.6,5.4-8,8.2
					C85.1,251.8,88.4,275.3,94.9,297.6z"/>
				<path class="st3" d="M426.9,230.5c-2.3-2.8-5-5.6-8-8.2c1.5,26-3.7,56.7-14.1,84.3c4-2.6,7.8-5.2,11.1-8
					C423.2,275.9,427,252,426.9,230.5z"/>
			</g>
		</g>
		<path class="st3" d="M305.6,375.2c-33.8-4.7-68.1-5.4-102.1-2.1c-78.3,7.6-106.2-109.7-95-168.8c5.7-30.1,39.3-51.7,67.6-58.4
			c51.4-12.1,106.2-12.9,157.8-2.1c27.7,5.9,55.1,24.7,65.9,51.7C422.2,251.9,382.1,385.8,305.6,375.2z"/>
		<path class="st4" d="M399.7,195.5c-5.3-13.3-14.7-24.7-26.2-33.5c3.9,5.1,7.1,10.7,9.5,16.7c22.5,56.4-17.6,190.3-94.1,179.6
			c-33.8-4.7-68.1-5.4-102.1-2.1c-18.6,1.8-34.3-3.4-47.4-13.2c15.5,20,36.7,32.6,64.1,30c34.1-3.3,68.3-2.6,102.1,2.1
			C382.1,385.8,422.2,251.9,399.7,195.5z"/>
		<path class="st2" d="M330.8,320.1c-13.1,5.1-27,8.2-39.9,9.9c-41,5.6-90.2,2.7-126.1-19.6c-16.1-10-28.7-24.9-31.7-44.1
			c-0.2-1.5-0.5-3.1-0.7-4.6c-5.8-36.6,20.9-70.2,57.9-73c44.5-3.5,89.3-3.5,133.8,0c36.9,2.9,63.7,36.4,57.9,73
			c-0.2,1.5-0.5,2.9-0.7,4.4C376.9,294,355.5,310.6,330.8,320.1z"/>
		<path class="st5" d="M291.8,293.5c0,7.1-14.7,19.4-32.8,19.4c-18.1,0-32.8-12.3-32.8-19.4c0-7.1,14.7-6.2,32.8-6.2
			C277.1,287.3,291.8,286.4,291.8,293.5z"/>
		<path class="st5" d="M211.7,248.8c0,5.8-4.7,10.5-10.5,10.5s-10.5-4.7-10.5-10.5c0-5.8,4.7-10.6,10.5-10.6S211.7,243,211.7,248.8z
			"/>
		<path class="st5" d="M321.3,245.5c0,5.8-4.7,10.5-10.5,10.5s-10.5-4.7-10.5-10.5c0-5.8,4.7-10.5,10.5-10.5
			S321.3,239.6,321.3,245.5z"/>
	</g>
</g>
</svg>
